<svg xmlns="http://www.w3.org/2000/svg" width="531" height="131.695" viewBox="0 0 531 131.695">
  <g id="logo" transform="translate(-504 -547)">
    <g id="iconfinder_setting-gear-process-engineering_2075815" transform="translate(504 547)">
      <path id="Path_1" data-name="Path 1" d="M34.729,4A30.729,30.729,0,1,0,65.458,34.729,30.763,30.763,0,0,0,34.729,4Zm0,52.678A21.949,21.949,0,1,1,56.678,34.729,21.98,21.98,0,0,1,34.729,56.678Z" transform="translate(31.119 31.119)"/>
      <path id="Path_2" data-name="Path 2" d="M131.7,79.017V52.678H112.31a48.187,48.187,0,0,0-4.32-10.351L121.713,28.6,103.091,9.974,89.368,23.705a48.188,48.188,0,0,0-10.351-4.32V0H52.678V19.386a48.188,48.188,0,0,0-10.351,4.32L28.6,9.974,9.974,28.6,23.705,42.327a48.188,48.188,0,0,0-4.32,10.351H0V79.017H19.386a48.188,48.188,0,0,0,4.32,10.351L9.983,103.1,28.6,121.722,42.327,107.99a48,48,0,0,0,10.351,4.32V131.7H79.017V112.31a48.187,48.187,0,0,0,10.351-4.32L103.1,121.713l18.622-18.622L107.99,89.368a48,48,0,0,0,4.32-10.351ZM109.307,103.1l-6.207,6.207L90.606,96.814l-2.994,1.975a39.476,39.476,0,0,1-13.863,5.777l-3.512.711v17.638h-8.78V105.277l-3.512-.711a39.2,39.2,0,0,1-13.854-5.777L41.1,96.814,28.6,109.307,22.388,103.1,34.882,90.606l-1.967-2.994a39.332,39.332,0,0,1-5.786-13.863l-.711-3.512H8.78v-8.78H26.418l.711-3.512a39.2,39.2,0,0,1,5.777-13.854L34.882,41.1,22.388,28.6,28.6,22.388,41.089,34.882l2.994-1.975a39.476,39.476,0,0,1,13.863-5.777l3.512-.711V8.78h8.78V26.418l3.512.711A39.2,39.2,0,0,1,87.6,32.906L90.6,34.882l12.493-12.493L109.3,28.6,96.8,41.089l1.975,2.994a39.332,39.332,0,0,1,5.786,13.863l.711,3.512h17.638v8.78H105.277l-.711,3.512A39.2,39.2,0,0,1,98.789,87.6L96.814,90.6Z"/>
    </g>
    <text id="GEARS_ON_FIRE" data-name="GEARS ON FIRE" transform="translate(675 606)" fill="#020000" font-size="46" font-family="HelveticaNeue-Bold, Helvetica Neue" font-weight="700"><tspan x="0" y="0">GEARS ON </tspan><tspan y="0" fill="#c90000">FIRE</tspan></text>
    <text id="B2B_Sales_Demo_Platform" data-name="B2B Sales Demo Platform" transform="translate(742 658)" fill="#020000" font-size="26" font-family="HelveticaNeue-Light, Helvetica Neue" font-weight="300"><tspan x="0" y="0">B2B Sales Demo Platform</tspan></text>
    <rect id="Rectangle_1" data-name="Rectangle 1" width="102" height="6" transform="translate(932 613)" fill="#c90000"/>
  </g>
</svg>
