<svg xmlns="http://www.w3.org/2000/svg" width="843.329" height="148.77" viewBox="0 0 843.329 148.77">
  <g id="logo" transform="translate(-532.671 -420.895)">
    <g id="_x32_06_x2C__Cloud_x2C__computing_x2C__screwdriver_x2C__toolings" transform="translate(478.309 351.422)">
      <g id="XMLID_12542_" transform="translate(54.362 69.473)">
        <path id="XMLID_12543_" d="M241.469,86.2v46.457H248.9V86.2a1.858,1.858,0,0,1,1.858-1.858h.972l-5.946-14.866h-1.2l-5.946,14.866h.972A1.858,1.858,0,0,1,241.469,86.2Z" transform="translate(-165.152 -69.473)"/>
        <path id="XMLID_12544_" d="M230.489,237.225h-7.022v67c0,7.554,4.815,13.822,11.06,14.874v-71.1a1.858,1.858,0,0,1,3.717,0V319.1c6.306-1.044,11.17-7.317,11.17-14.877v-67H230.489Z" transform="translate(-156.03 -170.327)"/>
        <path id="XMLID_12545_" d="M168.78,244.8q.19.5.361,1.014c.023.068.044.137.066.205q.146.449.276.9c.019.067.039.133.058.2q.144.517.267,1.038c.018.079.036.158.054.237.071.311.136.623.2.936.011.056.023.111.033.167q.1.529.172,1.062c.012.084.023.169.034.254.044.332.083.664.115,1,0,.035.008.069.011.1.033.36.057.721.075,1.082,0,.087.008.173.012.259.015.365.025.731.025,1.1s-.01.732-.026,1.1c0,.087-.007.173-.012.26-.019.362-.042.723-.075,1.083,0,.034-.008.067-.01.1-.032.335-.072.67-.116,1-.011.084-.023.168-.034.252-.051.356-.108.711-.173,1.065-.01.053-.022.107-.031.16q-.09.473-.2.942c-.018.079-.035.158-.054.236q-.124.523-.268,1.04c-.019.066-.039.131-.057.2q-.13.453-.277.9c-.023.071-.045.142-.069.212q-.171.507-.36,1.007c-.01.026-.019.054-.029.08h18.1v-19.27h-18.1C168.763,244.751,168.771,244.778,168.78,244.8Z" transform="translate(-123.132 -174.837)"/>
        <path id="XMLID_12546_" d="M74.952,210.69a23.212,23.212,0,0,0-20.59,12.7h26.5a1.858,1.858,0,0,1,1.858,1.858v17.295a1.858,1.858,0,0,1-1.858,1.858h-26.5a23.113,23.113,0,0,0,41.093.131A23.2,23.2,0,0,0,74.952,210.69Z" transform="translate(-54.362 -154.374)"/>
        <path id="XMLID_12547_" d="M315.47,262.905c-.023-.068-.044-.137-.067-.205q-.15-.453-.282-.912c-.018-.062-.038-.125-.055-.187q-.147-.52-.272-1.045c-.019-.077-.035-.154-.053-.231q-.109-.474-.2-.951c-.01-.051-.021-.1-.03-.153q-.1-.532-.175-1.068-.018-.124-.034-.249c-.045-.335-.085-.671-.118-1.006,0-.033-.008-.065-.01-.1-.033-.361-.058-.722-.076-1.084,0-.087-.008-.173-.012-.26-.015-.365-.026-.731-.026-1.1s.01-.731.026-1.1q.005-.13.012-.26c.018-.361.042-.722.076-1.082,0-.034.008-.068.011-.1.032-.334.072-.667.116-1q.017-.126.034-.253c.051-.356.108-.71.174-1.063.01-.055.022-.109.032-.164q.09-.473.2-.941c.018-.078.035-.156.053-.234q.125-.523.27-1.043c.018-.064.038-.128.056-.192q.133-.46.282-.914c.022-.066.042-.133.065-.2q.173-.513.367-1.02c.009-.025.017-.05.027-.075h-18V264h18.01c-.01-.025-.018-.051-.028-.077Q315.642,263.416,315.47,262.905Z" transform="translate(-200.752 -174.837)"/>
        <path id="XMLID_12548_" d="M363.137,242.545V225.25A1.858,1.858,0,0,1,365,223.392h26.611a23.1,23.1,0,0,0-41.193-.133v0a22.841,22.841,0,0,0-2.44,7.866,23.378,23.378,0,0,0-.164,2.77,22.7,22.7,0,0,0,2.614,10.632A23.184,23.184,0,0,0,391.6,244.4H365A1.858,1.858,0,0,1,363.137,242.545Z" transform="translate(-230.785 -154.374)"/>
        <rect id="XMLID_12549_" width="7.433" height="7.433" transform="translate(25.767 31.59)"/>
        <rect id="XMLID_12550_" width="7.433" height="7.433" transform="translate(36.917 31.59)"/>
        <rect id="XMLID_12551_" width="7.433" height="7.433" transform="translate(48.066 31.59)"/>
        <rect id="XMLID_12552_" width="7.433" height="7.433" transform="translate(103.815 31.59)"/>
        <rect id="XMLID_12553_" width="7.433" height="7.433" transform="translate(114.964 31.59)"/>
        <rect id="XMLID_12554_" width="7.433" height="7.433" transform="translate(126.114 31.59)"/>
      </g>
    </g>
    <text id="GEARS_ON_FIRE" data-name="GEARS ON FIRE" transform="translate(725 536)" fill="#a00000" font-size="88" font-family="HelveticaNeue-Thin, Helvetica Neue" font-weight="200"><tspan x="0" y="0" fill="#000">GEARS ON</tspan><tspan y="0" font-family="HelveticaNeue, Helvetica Neue" font-weight="400" fill="#000"> </tspan><tspan y="0" fill="#a00000" font-family="HelveticaNeue-Bold, Helvetica Neue" font-weight="700">FIRE</tspan></text>
    <rect id="Rectangle_1" data-name="Rectangle 1" width="428" height="8" transform="translate(725 555)" fill="#a00000"/>
  </g>
</svg>
