<svg xmlns="http://www.w3.org/2000/svg" width="282.453" height="60.141" viewBox="0 0 282.453 60.141">
  <g id="logo" transform="translate(-516.547 -412.388)">
    <g id="iconfinder_medical-healthcare-hospital-14_4082109" transform="translate(492.147 323.488)">
      <g id="Group_2" data-name="Group 2" transform="translate(24.4 88.9)">
        <path id="Path_1" data-name="Path 1" d="M101.835,275.7H82.4c3.509,5.075,9.322,10.743,18.805,16.88a23.345,23.345,0,0,0,12.7,3.743c.414,0,.846-.018,1.26-.036L105.4,268.5Z" transform="translate(-71.963 -236.18)" fill="#1b3954"/>
        <path id="Path_2" data-name="Path 2" d="M276.518,302,266.8,323.738a23.272,23.272,0,0,0,11-3.689c7.972-5.165,13.3-9.987,16.844-14.432h-16.3Z" transform="translate(-223.179 -263.652)" fill="#1b3954"/>
        <g id="Group_1" data-name="Group 1" transform="translate(0 7.882)">
          <path id="Path_3" data-name="Path 3" d="M85.422,157.318l-8.17-16.3-8.44,18.877L59.257,132.7,48.37,154.87H24.4v6.946H52.707L58.2,150.641l9.861,28.019,9.556-21.4,3.509,7h26.633v-6.946Z" transform="translate(-24.4 -132.7)" fill="#16ade1"/>
        </g>
        <path id="Path_4" data-name="Path 4" d="M70.176,116.433,83.006,90.286l9.466,26.9L100.5,99.211l9.843,19.687h15.026a26.777,26.777,0,0,0,.684-6.208c0-.648-.036-1.3-.09-1.943h-.126l-8.872.072h-.018a1.26,1.26,0,0,1-1.26-1.242,1.275,1.275,0,0,1,1.242-1.278l8.674-.072A23.391,23.391,0,0,0,89.754,93.165,23.389,23.389,0,0,0,52.9,112.294a28.786,28.786,0,0,0,.288,4.139Zm40.957-7.162a1.164,1.164,0,0,1,.072-.234l.108-.216a1.566,1.566,0,0,1,.162-.2,1.913,1.913,0,0,1,.2-.162.608.608,0,0,1,.216-.108,1.163,1.163,0,0,1,.234-.072,1.107,1.107,0,0,1,.486,0,1.163,1.163,0,0,1,.234.072l.216.108c.072.054.126.108.2.162a1.253,1.253,0,0,1,.36.882,1.187,1.187,0,0,1-.018.252,1.164,1.164,0,0,1-.072.234l-.108.216a1.566,1.566,0,0,1-.162.2,1.909,1.909,0,0,1-.2.162.608.608,0,0,1-.216.108,1.164,1.164,0,0,1-.234.072,1.773,1.773,0,0,1-.5,0,1.163,1.163,0,0,1-.234-.072l-.216-.108a1.566,1.566,0,0,1-.2-.162,1.913,1.913,0,0,1-.162-.2.608.608,0,0,1-.108-.216,1.165,1.165,0,0,1-.072-.234,1.188,1.188,0,0,1-.018-.252A1.052,1.052,0,0,1,111.133,109.271Z" transform="translate(-47.771 -88.9)" fill="#1b3954"/>
      </g>
    </g>
    <text id="B2B_MEDICAL_The_first_medical_sale_platform" data-name="B2B MEDICAL
The first medical sale platform" transform="translate(619 441)" fill="#16ade1" font-size="20" font-family="HelveticaNeue-Bold, Helvetica Neue" font-weight="700"><tspan x="0" y="0">B2B MEDICAL</tspan><tspan font-size="14" font-family="HelveticaNeue-Light, Helvetica Neue" font-weight="300" fill="#000"><tspan x="0" y="19">The first medical sale platform</tspan></tspan></text>
  </g>
</svg>
