<svg xmlns="http://www.w3.org/2000/svg" width="300" height="63.584" viewBox="0 0 300 63.584">
  <g id="logo" transform="translate(-534 -393.016)">
    <text id="STOCK_ON_FIRE" data-name="STOCK ON FIRE" transform="translate(620 435)" fill="#ad0b0b" font-size="32" font-family="PTSans-Regular, PT Sans"><tspan x="0" y="0" fill="#000">STOCK ON </tspan><tspan y="0" fill="#ad0b0b" font-family="PTSans-Bold, PT Sans" font-weight="700">FIRE</tspan></text>
    <g id="iconfinder_technology-machine-electronic-device-04_4026458" transform="translate(484.3 351.816)">
      <path id="Path_1" data-name="Path 1" d="M129.421,126.115l.178.03a9.415,9.415,0,0,1,4.559,2.176,9.872,9.872,0,0,1,.888.873l3.774-9.058.918-2.205c.074-.015.133-.03.207-.044a5.264,5.264,0,1,0-6.468-3.685,5.115,5.115,0,0,0,.622,1.421l-1.1,2-4.6,8.392c.34.03.681.059,1.021.1Z" transform="translate(-67.052 -56.527)" fill="#2b79c2"/>
      <path id="Path_2" data-name="Path 2" d="M264.254,108.543a5.593,5.593,0,0,1-.651,2.709,5.788,5.788,0,0,1-4.277,3.064,4.9,4.9,0,0,1-.814.059,5.773,5.773,0,0,1-5.506-3.863h0l-2.117.148-7.445.548a7.315,7.315,0,0,0,.148-4.366c-.059-.207-.118-.414-.192-.622l7.46.414,2.131.118a5.788,5.788,0,0,1,5.432-3.952,6.035,6.035,0,0,1,.9.059,5.815,5.815,0,0,1,4.277,3.064A5.674,5.674,0,0,1,264.254,108.543Z" transform="translate(-165.031 -52.483)" fill="#3b4652"/>
      <path id="Path_3" data-name="Path 3" d="M366.144,51.886l3.3-3.537,4.973,4.929,2.442-2.472-4.529-5.536L369,41.2l-3.256,3.478-3.745,4A7.9,7.9,0,0,1,366.144,51.886Z" transform="translate(-266.077)" fill="#2b79c2"/>
      <path id="Path_4" data-name="Path 4" d="M369.43,166.043l-3.3-3.537A7.928,7.928,0,0,1,362,165.718l3.73,3.981,3.256,3.478,3.33-4.07,4.529-5.536L374.4,161.1Z" transform="translate(-266.077 -102.154)" fill="#2b79c2"/>
      <path id="Path_5" data-name="Path 5" d="M98.2,265.361H72.094V253.624h-3.8a7.094,7.094,0,0,0-.37-2.294,7.558,7.558,0,0,0-.858-1.776,6.734,6.734,0,0,0-1.332-1.51,7.269,7.269,0,0,0-3.567-1.7h0a6.763,6.763,0,0,0-1.969-.074,7.344,7.344,0,0,0-4.9,2.516,7.425,7.425,0,0,0-1.82,4.855H49.7v25.827H98.2a7.043,7.043,0,0,0,7.045-7.045h0A7.056,7.056,0,0,0,98.2,265.361Zm-8.94,7.844H54.629a1.036,1.036,0,0,1,0-2.072H89.263a1.036,1.036,0,0,1,0,2.072Zm8.052,2.205a3,3,0,1,1,3-3A3.007,3.007,0,0,1,97.314,275.411Z" transform="translate(0 -174.682)" fill="#3b4652"/>
    </g>
    <line id="Line_1" data-name="Line 1" x2="98" transform="translate(617.5 443.516)" fill="none" stroke="#ad0b0b" stroke-width="1"/>
  </g>
</svg>
