<svg xmlns="http://www.w3.org/2000/svg" xmlns:xlink="http://www.w3.org/1999/xlink" width="1380" height="300" viewBox="0 0 1380 300">
  <defs>
    <clipPath id="clip-path">
      <rect id="Rectangle_1" data-name="Rectangle 1" width="1380" height="300" transform="translate(332 264)" fill="#fff" stroke="#707070" stroke-width="1"/>
    </clipPath>
  </defs>
  <g id="logo" transform="translate(-332 -264)">
    <g id="Mask_Group_1" data-name="Mask Group 1" clip-path="url(#clip-path)">
      <g id="_x37_45_x2C__Business_x2C__gear_x2C__management_x2C__operation_x2C__process" transform="translate(296.043 247.043)">
        <g id="Group_1" data-name="Group 1">
          <path id="Path_1" data-name="Path 1" d="M89.268,166.292v3.848l20.251,3.04a2.216,2.216,0,0,1,1.888,2.032c.306,1.907.72,3.8,1.223,5.7a55.867,55.867,0,0,0,1.853,5.72,2.246,2.246,0,0,1-.684,2.517L97.775,201.92l3.85,6.654,19.082-7.5a2.206,2.206,0,0,1,2.591.755c1.24,1.529,2.572,2.986,3.956,4.388,1.457,1.439,2.95,2.787,4.461,4.011a2.209,2.209,0,0,1,.683,2.517l-7.5,19.1,6.655,3.83,12.77-16.007a2.181,2.181,0,0,1,2.607-.648,58.716,58.716,0,0,0,5.63,1.817l.071.017a50.235,50.235,0,0,0,5.81,1.223,2.216,2.216,0,0,1,1.835,1.853l3.057,20.27h7.7l3.039-20.27a2.2,2.2,0,0,1,2.015-1.871c1.889-.306,3.794-.719,5.7-1.222l.108-.018a58.983,58.983,0,0,0,5.63-1.835,2.165,2.165,0,0,1,2.5.683l12.788,16.007,6.655-3.83-7.5-19.1a2.205,2.205,0,0,1,.755-2.59,53.2,53.2,0,0,0,4.388-3.956,54.5,54.5,0,0,0,4.011-4.461,2.219,2.219,0,0,1,2.517-.665l19.083,7.5,3.867-6.654-16.044-12.77a2.211,2.211,0,0,1-.646-2.626,54.024,54.024,0,0,0,1.835-5.629,57.753,57.753,0,0,0,1.24-5.863,2.176,2.176,0,0,1,1.853-1.835l20.251-3.057v-7.7l-20.251-3.04a2.236,2.236,0,0,1-1.889-2.051,53.891,53.891,0,0,0-1.205-5.666c-.54-1.977-1.169-3.9-1.871-5.737a2.227,2.227,0,0,1,.683-2.517l16.025-12.771-3.848-6.654-19.083,7.5a2.178,2.178,0,0,1-2.571-.755,58.324,58.324,0,0,0-8.435-8.4,2.231,2.231,0,0,1-.63-2.625l7.464-18.993-6.672-3.848L190.042,112.91a2.212,2.212,0,0,1-2.626.646,58.875,58.875,0,0,0-5.629-1.816l-.072-.018a55.384,55.384,0,0,0-5.791-1.24,2.195,2.195,0,0,1-1.853-1.853l-3.039-20.251h-7.7l-3.057,20.27a2.2,2.2,0,0,1-2.032,1.87c-1.889.306-3.795.72-5.683,1.223l-.109.018a58.857,58.857,0,0,0-5.63,1.835,2.229,2.229,0,0,1-2.5-.683l-12.77-16.025-6.655,3.848,7.5,19.1a2.215,2.215,0,0,1-.755,2.573,52.822,52.822,0,0,0-4.371,3.956,57.518,57.518,0,0,0-4.029,4.461,2.226,2.226,0,0,1-2.536.683l-19.082-7.518-3.85,6.672L113.8,143.431a2.2,2.2,0,0,1,.648,2.607,50.037,50.037,0,0,0-1.816,5.63l-.037.071a54.363,54.363,0,0,0-1.2,5.81,2.216,2.216,0,0,1-1.871,1.835l-20.251,3.057v3.85ZM167.182,66.31a99.971,99.971,0,1,1-70.7,29.281A99.737,99.737,0,0,1,167.182,66.31ZM297.216,40.753,271.245,60.3a2.209,2.209,0,0,1-3.093-.432,2.172,2.172,0,0,1-.431-1.493l.143-17.319H40.24V181.813a2.212,2.212,0,0,1-4.424,0V38.846a2.211,2.211,0,0,1,2.212-2.213H267.9l.145-17.5a2.192,2.192,0,0,1,2.212-2.176,2.237,2.237,0,0,1,1.331.449l25.647,19.838a2.2,2.2,0,0,1,.395,3.093ZM36.7,293.162l25.971-19.568a2.209,2.209,0,0,1,3.093.431,2.243,2.243,0,0,1,.45,1.51l-.144,17.32H293.692V152.1a2.2,2.2,0,1,1,4.406,0V295.05a2.21,2.21,0,0,1-2.212,2.212H66.013l-.144,17.5a2.206,2.206,0,0,1-2.212,2.194,2.179,2.179,0,0,1-1.331-.468L36.678,296.67a2.221,2.221,0,0,1-.4-3.095ZM188.728,54.8a2.177,2.177,0,0,0,2.446-1.312,2.215,2.215,0,0,0-1.618-3.023c-1.368-.252-3.094-.629-4.443-.755a2.209,2.209,0,1,0-.648,4.37Zm16.708,4.569a2.2,2.2,0,1,0,1.476-4.156l-4.263-1.439c-2.537-1.007-4.065,3.13-1.583,4.118C202.47,58.434,204,58.865,205.436,59.368Zm15.809,7.086c2.268,1.349,4.641-2.015,2.2-3.849-1.349-.738-2.734-1.439-4.1-2.122a2.212,2.212,0,0,0-1.942,3.974ZM235.8,75.843a2.209,2.209,0,0,0,2.662-3.526c-1.188-.9-2.41-1.8-3.633-2.662-2.212-1.654-4.964,1.817-2.517,3.633C233.314,74.134,234.7,75.015,235.8,75.843Zm12.948,11.51a2.213,2.213,0,0,0,3.166-3.093l-3.185-3.166a2.207,2.207,0,1,0-3.056,3.184C246.731,85.286,247.738,86.309,248.745,87.353Zm11.079,13.31a2.207,2.207,0,0,0,3.6-2.555c-.864-1.222-1.763-2.446-2.68-3.632-1.709-2.285-5.252.359-3.49,2.716C258.134,98.324,259,99.493,259.824,100.663Zm8.921,14.855c.953,2.375,5.163,1.045,3.939-1.977-.665-1.349-1.366-2.68-2.086-3.993a2.21,2.21,0,0,0-3.867,2.14C267.414,112.947,268.1,114.224,268.745,115.518Zm6.547,16.044a2.2,2.2,0,0,0,4.191-1.366q-.674-2.133-1.456-4.263a2.206,2.206,0,0,0-4.137,1.529Q274.619,129.485,275.292,131.562Zm3.993,16.833a2.212,2.212,0,0,0,4.371-.683c-.2-1.475-.5-2.986-.791-4.443a2.21,2.21,0,0,0-4.335.864C278.817,145.535,279.105,146.993,279.285,148.4Zm1.4,17.284c0,2.879,4.424,2.879,4.424,0,0-1.51-.053-3.021-.108-4.531,0-2.68-4.424-2.949-4.424.2C280.653,162.784,280.688,164.223,280.688,165.679Zm-1.205,17.285c-.54,2.679,3.8,3.56,4.335.809.287-1.475.431-3.13.611-4.641a2.214,2.214,0,0,0-4.317-.881C279.825,179.69,279.681,181.472,279.483,182.964Zm-3.832,16.888a2.232,2.232,0,0,0,2.447,2.841,2.192,2.192,0,0,0,1.78-1.546c.449-1.44.845-2.878,1.24-4.335a2.2,2.2,0,0,0-4.263-1.115Zm-6.367,16.115a2.2,2.2,0,0,0,3.975,1.906l1.889-4.083a2.207,2.207,0,0,0-4.047-1.762C270.526,213.36,269.915,214.655,269.285,215.968ZM260.526,230.9a2.21,2.21,0,0,0,3.633,2.518c.863-1.24,1.69-2.483,2.5-3.741a2.215,2.215,0,0,0-3.741-2.374Zm-10.935,13.454c-1.979,2,1.115,5.144,3.22,3.04l3.039-3.328a2.213,2.213,0,0,0-3.112-3.13C251.678,241.993,250.634,243.252,249.591,244.349Zm-12.824,11.637c-2.266,1.709.323,5.27,2.716,3.49,1.187-.935,2.356-1.871,3.507-2.842a2.208,2.208,0,0,0-2.86-3.363C239.034,254.2,237.9,255.1,236.768,255.986Zm-14.443,9.55c-2.644,1.6-.2,5.27,2.14,3.867,1.314-.72,2.645-1.493,3.9-2.266,2.464-1.493.179-5.27-2.248-3.813C224.861,264.1,223.6,264.834,222.324,265.536Zm-15.755,7.249a2.211,2.211,0,0,0,1.564,4.136c1.4-.5,2.787-1.061,4.172-1.636,2.608-1.043,1.079-5.2-1.69-4.083C209.286,271.759,207.936,272.281,206.57,272.785Zm-16.637,4.748c-2.68.539-2.032,4.91.882,4.317,1.474-.288,2.931-.612,4.388-.971a2.212,2.212,0,0,0-1.043-4.3C192.757,276.92,191.353,277.244,189.933,277.532Zm-17.195,2.14c-2.68,0-2.9,4.424.145,4.424,1.51-.053,3.057-.179,4.568-.306,2.644,0,2.752-4.407-.4-4.407C175.617,279.51,174.177,279.619,172.738,279.673Zm-17.32-.468c-2.481-.485-3.651,3.867-.539,4.388,1.492.179,3.057.27,4.568.4a2.217,2.217,0,0,0,.287-4.424C158.3,279.475,156.858,279.349,155.418,279.2Zm-17.049-3.076a2.209,2.209,0,0,0-1.1,4.28l4.371,1.043a2.208,2.208,0,0,0,.935-4.316ZM122,270.463a2.212,2.212,0,0,0-1.744,4.065c1.366.594,2.751,1.169,4.154,1.708,2.734,1.1,4.137-3.112,1.618-4.118Zm-15.324-8.093a2.206,2.206,0,0,0-2.338,3.741c1.277.79,2.553,1.583,3.848,2.338,2.429,1.456,4.767-2.3,2.212-3.83C109.142,263.881,107.9,263.143,106.678,262.371Zm-13.9-10.342c-1.87-1.87-4.981,1.259-3.112,3.147a46.944,46.944,0,0,0,3.687,3.094,2.209,2.209,0,0,0,2.752-3.455C94.987,253.9,93.873,252.981,92.774,252.028ZM80.6,239.709c-2.356-2.356-5.127,1.115-3.363,2.877.97,1.151,1.96,2.267,2.986,3.382a2.208,2.208,0,0,0,3.236-3C82.488,241.9,81.535,240.823,80.6,239.709ZM70.419,225.7c-1.457-2.445-5.287-.216-3.758,2.32.737,1.277,1.618,2.572,2.446,3.794a2.2,2.2,0,1,0,3.651-2.465C71.984,228.162,71.139,226.921,70.419,225.7Zm-7.914-15.4c-1.043-2.59-5.2-1.061-4.082,1.709ZM57.02,193.864a2.208,2.208,0,0,0-4.282,1.079,42.945,42.945,0,0,0,1.188,4.353,2.2,2.2,0,0,0,4.226-1.259C57.757,196.669,57.344,195.249,57.02,193.864Zm-2.878-17.087a2.214,2.214,0,1,0-4.406.431c.126,1.475.287,2.986.485,4.461.648,3.2,4.892,1.943,4.388-.576C54.431,179.655,54.251,178.217,54.142,176.777Zm-.288-17.32a2.207,2.207,0,0,0-4.407-.252c-.089,1.51-.143,3-.18,4.5a2.2,2.2,0,0,0,4.407.089C53.711,162.352,53.764,160.9,53.855,159.457ZM56.193,142.3a2.207,2.207,0,0,0-4.317-.918c-.305,1.475-.611,2.932-.863,4.424-.558,2.806,3.867,3.615,4.334.792Zm4.928-16.6c1.079-2.68-3.04-4.281-4.118-1.6-.557,1.385-1.043,2.841-1.529,4.263A2.2,2.2,0,0,0,59.557,130C60.114,128.612,60.6,127.119,61.121,125.7Zm7.428-15.666a2.209,2.209,0,0,0-3.777-2.284c-.791,1.312-1.51,2.716-2.229,4.064-1.44,2.392,2.373,4.6,3.921,2.033ZM78.26,95.7a2.209,2.209,0,0,0-3.471-2.733l-2.734,3.579c-1.709,2.266,1.871,4.875,3.58,2.609C76.481,97.982,77.362,96.832,78.26,95.7ZM90.042,83c2.194-2.212-1.1-5.162-3-3.237l-3.256,3.112A2.213,2.213,0,0,0,86.912,86ZM103.6,72.228c2.482-1.493-.179-5.377-2.427-3.706-1.259.828-2.536,1.745-3.741,2.645a2.2,2.2,0,0,0,2.625,3.543C101.229,73.864,102.416,73.036,103.6,72.228Zm15.037-8.6a2.243,2.243,0,0,0,1.152-2.716,2.2,2.2,0,0,0-3.04-1.276c-1.349.646-2.716,1.312-4.047,2.014-2.752,1.655-.162,5.252,2.068,3.9C116.049,64.889,117.344,64.26,118.638,63.63Zm16.188-6.187a2.214,2.214,0,0,0-1.26-4.245c-1.439.432-2.9.9-4.315,1.385a2.21,2.21,0,0,0,1.457,4.173C132.055,58.289,133.458,57.839,134.826,57.443Zm16.942-3.632c3.166-.631,1.925-4.893-.611-4.388-1.493.215-2.986.431-4.461.7a2.211,2.211,0,0,0,.773,4.353C148.891,54.224,150.329,53.99,151.768,53.811Zm15.414-5.468-2.573.036a2.213,2.213,0,0,0,.108,4.424c2.247-.07,4.55-.036,6.8.055a2.214,2.214,0,0,0,.144-4.426Zm0,86.33a31.619,31.619,0,1,1-22.374,53.975l-.126-.126a31.611,31.611,0,0,1,22.5-53.849Z"/>
        </g>
      </g>
    </g>
    <text id="STOCK_ON_FIRE" data-name="STOCK ON FIRE" transform="translate(650 460)" font-size="125" font-family="HelveticaNeue-Bold, Helvetica Neue" font-weight="700"><tspan x="0" y="0">STOCK</tspan><tspan y="0" xml:space="preserve" font-family="HelveticaNeue, Helvetica Neue" font-weight="400"> ON FIRE</tspan></text>
    <rect id="Rectangle_2" data-name="Rectangle 2" width="487" height="13" transform="translate(1122 494)" fill="#860a0a"/>
  </g>
</svg>
