<svg id="mrdecor-logo-white-bg" xmlns="http://www.w3.org/2000/svg" xmlns:xlink="http://www.w3.org/1999/xlink" width="523.344" height="133.304" viewBox="0 0 523.344 133.304">
  <defs>
    <filter id="Path_2" x="26.969" y="29.968" width="134.426" height="78.109" filterUnits="userSpaceOnUse">
      <feOffset dy="3" input="SourceAlpha"/>
      <feGaussianBlur stdDeviation="5.5" result="blur"/>
      <feFlood flood-opacity="0.161"/>
      <feComposite operator="in" in2="blur"/>
      <feComposite in="SourceGraphic"/>
    </filter>
    <filter id="Path_3" x="200.843" y="27.071" width="322.501" height="85.206" filterUnits="userSpaceOnUse">
      <feOffset dy="3" input="SourceAlpha"/>
      <feGaussianBlur stdDeviation="5.5" result="blur-2"/>
      <feFlood flood-opacity="0.161"/>
      <feComposite operator="in" in2="blur-2"/>
      <feComposite in="SourceGraphic"/>
    </filter>
  </defs>
  <g id="SvgjsG9730">
    <path id="Path_1" data-name="Path 1" d="M0,0H188.364V133.3H0ZM8.694,8.694V124.61H179.67V8.694H8.694Z" fill="#c5b266"/>
  </g>
  <g id="SvgjsG9731" transform="translate(43.469 43.468)">
    <g transform="matrix(1, 0, 0, 1, -43.47, -43.47)" filter="url(#Path_2)">
      <path id="Path_2-2" data-name="Path 2" d="M99.437,180.148a7.5,7.5,0,0,0-3.422.837V177.6l0,.005a9.224,9.224,0,0,0-9.211-9.1H63.148a9.186,9.186,0,0,0-5.95,2.183H55.339A9.185,9.185,0,0,0,49.39,168.5H25.736a9.223,9.223,0,0,0-9.211,9.1l0-.005v3.386A7.536,7.536,0,0,0,7.6,192.852v15.139c0,3.1,2.927,5.617,6.525,5.617,3.291,0,6.011-2.11,6.453-4.842H91.963c.442,2.732,3.164,4.842,6.453,4.842,3.6,0,6.523-2.519,6.523-5.617V192.852a7.543,7.543,0,0,0-5.5-12.7ZM15.991,207.992c0,.34-.71.965-1.87.965s-1.872-.624-1.872-.965V190.683l-.909-.7A2.889,2.889,0,0,1,13.1,184.8a2.9,2.9,0,0,1,2.882,2.668l0,.037c0,.028.005.055.006.071v20.414Zm42.6-30.276a4.567,4.567,0,0,1,4.561-4.564H86.8a4.568,4.568,0,0,1,4.563,4.564v13.419a8.5,8.5,0,0,0-3.724-.857H58.588V177.716Zm-37.415,0a4.568,4.568,0,0,1,4.564-4.564H49.391a4.566,4.566,0,0,1,4.559,4.564v12.563H24.9a8.492,8.492,0,0,0-3.725.857V177.716Zm-.224,26.4,0-5.128a8.139,8.139,0,0,1,.185-1.269,4.131,4.131,0,0,1,.179-.453,3.607,3.607,0,0,1,.223-.421l0,0A3.918,3.918,0,0,1,24.9,194.93H87.642A3.917,3.917,0,0,1,91,196.842l0,.005a4.381,4.381,0,0,1,.4.873,7.925,7.925,0,0,1,.186,1.269l0,5.128H20.948Zm80.25-14.131-.91.7v17.309c0,.34-.711.965-1.871.965s-1.871-.624-1.871-.965V187.578c0-.018,0-.043.006-.071l0-.037a2.891,2.891,0,0,1,5.773.222A2.87,2.87,0,0,1,101.2,189.984Z" transform="translate(37.91 -125.03)"/>
    </g>
  </g>
  <g id="SvgjsG9732" transform="translate(217.343 40.571)" style="isolation: isolate">
    <g transform="matrix(1, 0, 0, 1, -217.34, -40.57)" filter="url(#Path_3)">
      <path id="Path_3-2" data-name="Path 3" d="M69.841,225.382c6.844,0,14.053,4.3,14.053,16.383v22.062H78V241.619c0-7.427-3.932-10.995-9.611-10.995-6.407,0-10.194,5.315-11.213,10.7v22.5h-5.9V241.619c0-7.427-4.587-10.995-9.684-10.995-6.772,0-10.267,5.752-11.067,10.7v22.5H24.552V225.965h5.971v8.883a12.415,12.415,0,0,1,12.232-9.466,14.011,14.011,0,0,1,13.325,9.538A14.506,14.506,0,0,1,69.841,225.382Zm41.5,0a7.386,7.386,0,0,1,1.82.146v5.607a7.386,7.386,0,0,0-1.747-.146c-7.208,0-13.106,5.17-14.126,13.689v19.15H91.32V225.965h5.971v9.975A14.114,14.114,0,0,1,111.344,225.382Zm39.173-13.033h5.971v51.478h-5.971v-7.281c-1.747,4.369-6.917,8.009-13.616,8.009-8.592,0-19-6.48-19-19.659a19.048,19.048,0,0,1,19-19.586c6.7,0,11.868,3.713,13.616,7.791V212.349ZM137.556,259.24c6.48,0,13.252-4.587,13.252-14.344,0-9.684-6.772-14.271-13.252-14.271A13.758,13.758,0,0,0,123.722,244.9C123.722,254.507,131.148,259.24,137.556,259.24Zm45-33.93c8.592,0,20.1,6.553,18.567,21.771H169.156c.947,8.3,7.427,12.378,14.271,12.378,5.242,0,8.592-1.456,11.431-4.223l3.495,3.2c-3.422,4.077-8.373,6.116-15,6.116-9.757,0-20.169-6.553-20.169-19.586C163.186,231.863,173.962,225.309,182.554,225.309Zm0,5.17a13.657,13.657,0,0,0-13.4,12.16h26.722A13.292,13.292,0,0,0,182.554,230.479Zm43.25-5.17c6.844,0,12.815,3.131,16.091,9.247l-4.733,2.039a12.731,12.731,0,0,0-11.286-5.971c-6.262,0-13.689,4.733-13.689,14.344a13.663,13.663,0,0,0,13.689,14.2c5.024,0,8.883-2.112,11.286-5.9l4.806,2.039c-3.349,6.116-9.32,9.174-16.164,9.174-8.665,0-19.441-6.407-19.441-19.514S217.14,225.309,225.8,225.309Zm40.265,0c8.592,0,19.441,6.553,19.441,19.659s-10.849,19.586-19.441,19.586-19.368-6.48-19.368-19.586S257.478,225.309,266.069,225.309Zm0,5.315c-6.116,0-13.543,4.733-13.543,14.344,0,9.538,7.427,14.271,13.543,14.271,6.189,0,13.616-4.733,13.616-14.271C279.685,235.358,272.258,230.625,266.069,230.625Zm46.163-5.242a7.387,7.387,0,0,1,1.82.146v5.607a7.386,7.386,0,0,0-1.748-.146c-7.208,0-13.106,5.17-14.126,13.689v19.15h-5.971V225.965h5.971v9.975A14.114,14.114,0,0,1,312.232,225.382Z" transform="translate(192.79 -171.78)"/>
    </g>
  </g>
</svg>
